<svg width="50" height="50" viewBox="0 0 48 48" fill="none" xmlns="http://www.w3.org/2000/svg">
<rect x="0.5" y="0.5" width="47" height="50" rx="11.5" stroke="#9A9A9A "  stroke-width="2"/>
<path d="M29.45 34.75C28.32 34.75 27.13 34.48 25.9 33.96C24.7 33.45 23.49 32.75 22.31 31.9C21.14 31.04 20.01 30.08 18.94 29.03C17.88 27.96 16.92 26.83 16.07 25.67C15.21 24.47 14.52 23.27 14.03 22.11C13.51 20.87 13.25 19.67 13.25 18.54C13.25 17.76 13.39 17.02 13.66 16.33C13.94 15.62 14.39 14.96 15 14.39C15.77 13.63 16.65 13.25 17.59 13.25C17.98 13.25 18.38 13.34 18.72 13.5C19.11 13.68 19.44 13.95 19.68 14.31L22 17.58C22.21 17.87 22.37 18.15 22.48 18.43C22.61 18.73 22.68 19.03 22.68 19.32C22.68 19.7 22.57 20.07 22.36 20.42C22.21 20.69 21.98 20.98 21.69 21.27L21.01 21.98C21.02 22.01 21.03 22.03 21.04 22.05C21.16 22.26 21.4 22.62 21.86 23.16C22.35 23.72 22.81 24.23 23.27 24.7C23.86 25.28 24.35 25.74 24.81 26.12C25.38 26.6 25.75 26.84 25.97 26.95L25.95 27L26.68 26.28C26.99 25.97 27.29 25.74 27.58 25.59C28.13 25.25 28.83 25.19 29.53 25.48C29.79 25.59 30.07 25.74 30.37 25.95L33.69 28.31C34.06 28.56 34.33 28.88 34.49 29.26C34.64 29.64 34.71 29.99 34.71 30.34C34.71 30.82 34.6 31.3 34.39 31.75C34.18 32.2 33.92 32.59 33.59 32.95C33.02 33.58 32.4 34.03 31.68 34.32C30.99 34.6 30.24 34.75 29.45 34.75ZM17.59 14.75C17.04 14.75 16.53 14.99 16.04 15.47C15.58 15.9 15.26 16.37 15.06 16.88C14.85 17.4 14.75 17.95 14.75 18.54C14.75 19.47 14.97 20.48 15.41 21.52C15.86 22.58 16.49 23.68 17.29 24.78C18.09 25.88 19 26.95 20 27.96C21 28.95 22.08 29.87 23.19 30.68C24.27 31.47 25.38 32.11 26.48 32.57C28.19 33.3 29.79 33.47 31.11 32.92C31.62 32.71 32.07 32.39 32.48 31.93C32.71 31.68 32.89 31.41 33.04 31.09C33.16 30.84 33.22 30.58 33.22 30.32C33.22 30.16 33.19 30 33.11 29.82C33.08 29.76 33.02 29.65 32.83 29.52L29.51 27.16C29.31 27.02 29.13 26.92 28.96 26.85C28.74 26.76 28.65 26.67 28.31 26.88C28.11 26.98 27.93 27.13 27.73 27.33L26.97 28.08C26.58 28.46 25.98 28.55 25.52 28.38L25.25 28.26C24.84 28.04 24.36 27.7 23.83 27.25C23.35 26.84 22.83 26.36 22.2 25.74C21.71 25.24 21.22 24.71 20.71 24.12C20.24 23.57 19.9 23.1 19.69 22.71L19.57 22.41C19.51 22.18 19.49 22.05 19.49 21.91C19.49 21.55 19.62 21.23 19.87 20.98L20.62 20.2C20.82 20 20.97 19.81 21.07 19.64C21.15 19.51 21.18 19.4 21.18 19.3C21.18 19.22 21.15 19.1 21.1 18.98C21.03 18.82 20.92 18.64 20.78 18.45L18.46 15.17C18.36 15.03 18.24 14.93 18.09 14.86C17.93 14.79 17.76 14.75 17.59 14.75ZM25.95 27.01L25.79 27.69L26.06 26.99C26.01 26.98 25.97 26.99 25.95 27.01Z" fill="#9A9A9A"  stroke="#9A9A9A "  stroke-width="2" />
<path d="M30.5 21.75C30.09 21.75 29.75 21.41 29.75 21C29.75 20.64 29.39 19.89 28.79 19.25C28.2 18.62 27.55 18.25 27 18.25C26.59 18.25 26.25 17.91 26.25 17.5C26.25 17.09 26.59 16.75 27 16.75C27.97 16.75 28.99 17.27 29.88 18.22C30.71 19.11 31.25 20.2 31.25 21C31.25 21.41 30.91 21.75 30.5 21.75Z" fill="#9A9A9A"  stroke="#9A9A9A "  stroke-width="2" />
<path d="M34 21.75C33.59 21.75 33.25 21.41 33.25 21C33.25 17.55 30.45 14.75 27 14.75C26.59 14.75 26.25 14.41 26.25 14C26.25 13.59 26.59 13.25 27 13.25C31.27 13.25 34.75 16.73 34.75 21C34.75 21.41 34.41 21.75 34 21.75Z" fill="#9A9A9A" stroke="#9A9A9A "  stroke-width="2" />
</svg>
