<svg width="48" height="48" viewBox="0 0 48 48" fill="none" xmlns="http://www.w3.org/2000/svg">
<rect x="0.5" y="0.5" width="47" height="47" rx="11.5" stroke="white"/>
<path d="M29 33.25H19C15.35 33.25 13.25 31.15 13.25 27.5V20.5C13.25 16.85 15.35 14.75 19 14.75H29C32.65 14.75 34.75 16.85 34.75 20.5V27.5C34.75 31.15 32.65 33.25 29 33.25ZM19 16.25C16.14 16.25 14.75 17.64 14.75 20.5V27.5C14.75 30.36 16.14 31.75 19 31.75H29C31.86 31.75 33.25 30.36 33.25 27.5V20.5C33.25 17.64 31.86 16.25 29 16.25H19Z" fill="white"/>
<path d="M23.9998 24.87C23.1598 24.87 22.3098 24.61 21.6598 24.08L18.5298 21.58C18.2098 21.32 18.1498 20.85 18.4098 20.53C18.6698 20.21 19.1398 20.15 19.4598 20.41L22.5898 22.91C23.3498 23.52 24.6398 23.52 25.3998 22.91L28.5298 20.41C28.8498 20.15 29.3298 20.2 29.5798 20.53C29.8398 20.85 29.7898 21.33 29.4598 21.58L26.3298 24.08C25.6898 24.61 24.8398 24.87 23.9998 24.87Z" fill="white"/>
</svg>
