<svg width="48" height="48" viewBox="0 0 48 48" fill="none" xmlns="http://www.w3.org/2000/svg">
<rect x="0.5" y="0.5" width="47" height="47" rx="11.5" stroke="white"/>
<path d="M27.65 33.4102C27.22 33.4102 26.79 33.3202 26.44 33.1502L21.19 30.5202C20.89 30.3702 20.3 30.3802 20.01 30.5502L17.65 31.9002C16.63 32.4802 15.58 32.5602 14.79 32.0902C13.99 31.6302 13.54 30.6902 13.54 29.5102V19.7902C13.54 18.8802 14.14 17.8502 14.93 17.4002L19.26 14.9202C19.99 14.5002 21.1 14.4702 21.85 14.8502L27.1 17.4802C27.4 17.6302 27.98 17.6102 28.28 17.4502L30.63 16.1102C31.65 15.5302 32.7 15.4502 33.49 15.9202C34.29 16.3802 34.74 17.3202 34.74 18.5002V28.2302C34.74 29.1402 34.14 30.1702 33.35 30.6202L29.02 33.1002C28.64 33.3002 28.14 33.4102 27.65 33.4102ZM20.64 28.9202C21.07 28.9202 21.5 29.0102 21.85 29.1802L27.1 31.8102C27.4 31.9602 27.98 31.9402 28.28 31.7802L32.61 29.3002C32.93 29.1202 33.24 28.5802 33.24 28.2202V18.4902C33.24 17.8602 33.06 17.3902 32.73 17.2102C32.41 17.0302 31.91 17.1002 31.37 17.4102L29.02 18.7502C28.29 19.1702 27.18 19.2002 26.43 18.8202L21.18 16.1902C20.88 16.0402 20.3 16.0602 20 16.2202L15.67 18.7002C15.35 18.8802 15.04 19.4202 15.04 19.7902V29.5202C15.04 30.1502 15.22 30.6202 15.54 30.8002C15.86 30.9902 16.36 30.9102 16.91 30.6002L19.26 29.2602C19.65 29.0302 20.15 28.9202 20.64 28.9202Z" fill="white"/>
<path d="M20.5596 29.75C20.1496 29.75 19.8096 29.41 19.8096 29V16C19.8096 15.59 20.1496 15.25 20.5596 15.25C20.9696 15.25 21.3096 15.59 21.3096 16V29C21.3096 29.41 20.9696 29.75 20.5596 29.75Z" fill="white"/>
<path d="M27.7305 32.7491C27.3205 32.7491 26.9805 32.4091 26.9805 31.9991V18.6191C26.9805 18.2091 27.3205 17.8691 27.7305 17.8691C28.1405 17.8691 28.4805 18.2091 28.4805 18.6191V31.9991C28.4805 32.4091 28.1405 32.7491 27.7305 32.7491Z" fill="white"/>
</svg>
