
<svg width="24" height="24" viewBox="0 0 24 24" fill="none" xmlns="http://www.w3.org/2000/svg">
<path fill-rule="evenodd" clip-rule="evenodd" d="M12.1017 3.52539C7.51211 3.52539 3.76953 7.31427 3.76953 12.0154C3.76953 13.3635 4.07784 14.6376 4.62599 15.7689C4.67538 15.8708 4.70104 15.9827 4.70104 16.0959V19.5578H8.09092C8.20766 19.5578 8.32279 19.585 8.42714 19.6373C9.5358 20.1933 10.783 20.5054 12.1017 20.5054C16.6914 20.5054 20.4339 16.7166 20.4339 12.0154C20.4339 7.31427 16.6914 3.52539 12.1017 3.52539ZM2.26953 12.0154C2.26953 6.51031 6.65943 2.02539 12.1017 2.02539C17.544 2.02539 21.9339 6.51031 21.9339 12.0154C21.9339 17.5205 17.544 22.0054 12.1017 22.0054C10.6076 22.0054 9.18808 21.6658 7.91714 21.0578H4.64967C3.83748 21.0578 3.20104 20.3915 3.20104 19.597V16.2645C2.60304 14.9733 2.26953 13.5319 2.26953 12.0154Z" fill="#353535"/>
<path fill-rule="evenodd" clip-rule="evenodd" d="M11.3516 9.99414C11.3516 9.57993 11.6873 9.24414 12.1016 9.24414H16.1016C16.5158 9.24414 16.8516 9.57993 16.8516 9.99414C16.8516 10.4084 16.5158 10.7441 16.1016 10.7441H12.1016C11.6873 10.7441 11.3516 10.4084 11.3516 9.99414Z" fill="#353535"/>
<path fill-rule="evenodd" clip-rule="evenodd" d="M8.35156 13.4941C8.35156 13.0799 8.68735 12.7441 9.10156 12.7441H16.1016C16.5158 12.7441 16.8516 13.0799 16.8516 13.4941C16.8516 13.9084 16.5158 14.2441 16.1016 14.2441H9.10156C8.68735 14.2441 8.35156 13.9084 8.35156 13.4941Z" fill="#353535"/>
</svg>
