
<svg width="24" height="24" viewBox="0 0 24 24" fill="none" xmlns="http://www.w3.org/2000/svg">
<path d="M15.7031 3.75293C15.7979 3.65829 15.961 3.65822 16.0557 3.75293C16.1502 3.84766 16.1503 4.01077 16.0557 4.10547L4.10547 16.0654C4.0723 16.0986 4.00579 16.1289 3.92871 16.1289C3.86439 16.1288 3.80407 16.1067 3.75293 16.0557C3.65822 15.961 3.65829 15.7979 3.75293 15.7031L15.7031 3.75293Z" fill="#353535" stroke="#353535"/>
<path d="M12.123 16.9033C12.2178 16.8087 12.3809 16.8086 12.4756 16.9033C12.5701 16.998 12.5702 17.1612 12.4756 17.2559L11.2754 18.4561C11.2281 18.5033 11.1645 18.5293 11.0986 18.5293C11.0343 18.5292 10.974 18.5071 10.9229 18.4561C10.8281 18.3613 10.8282 18.1983 10.9229 18.1035L12.123 16.9033Z" fill="#353535" stroke="#353535"/>
<path d="M16.0039 13.0244C16.0986 12.9297 16.2617 12.9298 16.3564 13.0244C16.4512 13.1192 16.4512 13.2822 16.3564 13.377L13.9668 15.7666C13.922 15.8114 13.8494 15.8408 13.79 15.8408C13.7257 15.8407 13.6654 15.8178 13.6143 15.7666C13.5196 15.6718 13.5196 15.5088 13.6143 15.4141L16.0039 13.0244Z" fill="#353535" stroke="#353535"/>
<path d="M12.8906 1.75586C13.6626 1.75194 14.5194 2.21667 15.6973 3.39453L20.6074 8.30469C21.7852 9.48247 22.25 10.3394 22.2461 11.1113C22.242 11.8853 21.766 12.7486 20.5771 13.9375L13.9375 20.5771C12.7421 21.7725 11.8772 22.251 11.1006 22.251C10.3331 22.2509 9.47849 21.7812 8.30469 20.6074L3.39453 15.6973C2.21667 14.5194 1.75194 13.6626 1.75586 12.8906C1.75991 12.1166 2.23583 11.2534 3.4248 10.0645L10.0645 3.4248C11.2534 2.23583 12.1166 1.75991 12.8906 1.75586ZM12.9014 2.25098C12.5046 2.25098 12.1124 2.41348 11.7246 2.66504C11.3335 2.91879 10.9025 3.2918 10.417 3.77734L3.77734 10.417C3.29185 10.9025 2.91955 11.3334 2.66602 11.7227C2.41534 12.1077 2.25105 12.4974 2.25098 12.8906C2.25098 13.282 2.4015 13.6646 2.64844 14.0498C2.8954 14.435 3.26172 14.8594 3.74707 15.3447L8.65723 20.2549C9.14176 20.7394 9.56391 21.1056 9.94629 21.3525C10.3289 21.5995 10.7087 21.7509 11.1006 21.751H11.1113C11.5087 21.7509 11.898 21.5876 12.2832 21.3359C12.6714 21.0823 13.0993 20.7093 13.584 20.2246L20.2246 13.584C20.7102 13.0984 21.0825 12.6677 21.3359 12.2783C21.5865 11.8934 21.7509 11.5044 21.751 11.1113C21.751 10.72 21.6004 10.3373 21.3535 9.95215C21.1066 9.56693 20.7402 9.14256 20.2549 8.65723L15.3447 3.74707C14.8647 3.26208 14.4426 2.89648 14.0586 2.64941C13.6743 2.40217 13.2926 2.2511 12.9014 2.25098Z" fill="#353535" stroke="#353535"/>
<path d="M2 21.75H22C22.1339 21.75 22.25 21.8661 22.25 22C22.25 22.1339 22.1339 22.25 22 22.25H2C1.86614 22.25 1.75 22.1339 1.75 22C1.75 21.8661 1.86614 21.75 2 21.75Z" fill="#353535" stroke="#353535"/>
</svg>
