<svg width="24" height="24" viewBox="0 0 24 24" fill="none" xmlns="http://www.w3.org/2000/svg">
<path fill-rule="evenodd" clip-rule="evenodd" d="M16.4163 3.75197C15.6912 3.94374 15.6913 3.94392 15.6913 3.94411L15.6917 3.94543L15.6923 3.94766L15.6939 3.95366L15.6989 3.97178C15.7031 3.98652 15.7088 4.00652 15.7163 4.03134C15.7313 4.08095 15.753 4.14997 15.7823 4.23478C15.8406 4.40404 15.9293 4.63824 16.0538 4.90769C16.3 5.44071 16.6996 6.14155 17.305 6.74671C17.9115 7.35293 18.6033 7.74205 19.1296 7.97833C19.3953 8.09759 19.6257 8.18094 19.7924 8.23519C19.8759 8.26238 19.9439 8.28242 19.993 8.29614C20.0176 8.30301 20.0375 8.3083 20.0522 8.31212L20.0705 8.31677L20.0766 8.31829L20.0789 8.31886L20.0803 8.3192C20.0805 8.31925 20.0807 8.3193 20.2561 7.59008L20.0803 8.3192C20.4831 8.41605 20.8885 8.16817 20.9853 7.76544C21.082 7.36346 20.8351 6.95922 20.4337 6.86141L20.4285 6.86009C20.4226 6.85855 20.4118 6.85571 20.3967 6.85148C20.3664 6.843 20.3186 6.82902 20.2566 6.80885C20.1324 6.7684 19.9531 6.70376 19.7439 6.60987C19.3206 6.41985 18.8019 6.12206 18.3655 5.68581C17.928 5.24851 17.6181 4.7172 17.4155 4.27869C17.3156 4.06238 17.2452 3.87597 17.2004 3.74605C17.1781 3.68128 17.1623 3.63108 17.1526 3.59886C17.1478 3.58276 17.1445 3.5712 17.1426 3.5646L17.1409 3.5585C17.1408 3.55812 17.1408 3.55822 17.1409 3.5585L17.1412 3.55954C17.035 3.15949 16.6247 2.92105 16.2245 3.0269C15.8241 3.13281 15.5854 3.54367 15.6913 3.94411L16.4163 3.75197ZM17.1412 3.55954C17.1412 3.55952 17.1412 3.55956 17.1412 3.55954V3.55954Z" fill="#8CA5F8"/>
<path fill-rule="evenodd" clip-rule="evenodd" d="M16.0225 2.96712C17.3431 1.31108 19.8443 1.10526 21.3681 2.62838C22.9155 4.17511 22.6763 6.71885 20.9787 8.03014C19.7536 8.97639 18.3693 10.1093 17.379 11.1004C16.1393 12.3413 14.7614 13.9576 13.7846 15.1458C12.841 16.2936 11.5028 17.0734 10.0132 17.2781L7.88267 17.5709C7.07236 17.6823 6.3752 16.9982 6.47113 16.1859L6.7254 14.0329C6.90593 12.5042 7.6913 11.1243 8.86558 10.1568C10.0542 9.17754 11.6529 7.81153 12.8701 6.59377C13.8795 5.58391 15.05 4.18676 16.0225 2.96712ZM20.3077 3.68928C19.4424 2.82436 17.9808 2.91727 17.1953 3.9023C16.2149 5.1318 15.002 6.58274 13.931 7.6542C12.6609 8.92488 11.0166 10.3281 9.81941 11.3145C8.92976 12.0475 8.34816 13.0817 8.21505 14.2088L7.99869 16.0409L9.80897 15.7921C10.9072 15.6412 11.9106 15.0634 12.6258 14.1933C13.61 12.996 15.0252 11.3342 16.3179 10.0403C17.3785 8.9787 18.825 7.79832 20.0617 6.84303C21.0777 6.05828 21.1854 4.56659 20.3077 3.68928Z" fill="#8CA5F8"/>
<path fill-rule="evenodd" clip-rule="evenodd" d="M6.3457 3.40234C4.55078 3.40234 3.0957 4.85742 3.0957 6.65234V17.6523C3.0957 19.4473 4.55078 20.9023 6.3457 20.9023H17.3457C19.1406 20.9023 20.5957 19.4473 20.5957 17.6523V12.1523C20.5957 11.7381 20.9315 11.4023 21.3457 11.4023C21.7599 11.4023 22.0957 11.7381 22.0957 12.1523V17.6523C22.0957 20.2757 19.9691 22.4023 17.3457 22.4023H6.3457C3.72235 22.4023 1.5957 20.2757 1.5957 17.6523V6.65234C1.5957 4.02899 3.72235 1.90234 6.3457 1.90234H11.8457C12.2599 1.90234 12.5957 2.23813 12.5957 2.65234C12.5957 3.06656 12.2599 3.40234 11.8457 3.40234H6.3457Z" fill="#8CA5F8"/>
</svg>