
<svg width="24" height="24" viewBox="0 0 24 24" fill="none" xmlns="http://www.w3.org/2000/svg">
<path d="M8.7595 22.2705H8.8895C13.3295 22.2705 15.4695 20.5205 15.8395 16.6005C15.8795 16.1905 15.5795 15.8205 15.1595 15.7805C14.7595 15.7405 14.3795 16.0505 14.3395 16.4605C14.0495 19.6005 12.5695 20.7705 8.8795 20.7705H8.7495C4.6795 20.7705 3.2395 19.3305 3.2395 15.2605V8.74047C3.2395 4.67047 4.6795 3.23047 8.7495 3.23047H8.8795C12.5895 3.23047 14.0695 4.42047 14.3395 7.62047C14.3895 8.03047 14.7395 8.34047 15.1595 8.30047C15.5795 8.27047 15.8795 7.90047 15.8495 7.49047C15.5095 3.51047 13.3595 1.73047 8.8895 1.73047H8.7595C3.8495 1.73047 1.7495 3.83047 1.7495 8.74047V15.2605C1.7495 20.1705 3.8495 22.2705 8.7595 22.2705Z" fill="#FF2F28"/>
<path d="M9.00086 12.75H20.3809C20.7909 12.75 21.1309 12.41 21.1309 12C21.1309 11.59 20.7909 11.25 20.3809 11.25H9.00086C8.59086 11.25 8.25086 11.59 8.25086 12C8.25086 12.41 8.59086 12.75 9.00086 12.75Z" fill="#FF2F28"/>
<path d="M18.1505 16.0998C18.3405 16.0998 18.5305 16.0298 18.6805 15.8798L22.0305 12.5298C22.3205 12.2398 22.3205 11.7598 22.0305 11.4698L18.6805 8.11984C18.3905 7.82984 17.9105 7.82984 17.6205 8.11984C17.3305 8.40984 17.3305 8.88984 17.6205 9.17984L20.4405 11.9998L17.6205 14.8198C17.3305 15.1098 17.3305 15.5898 17.6205 15.8798C17.7605 16.0298 17.9605 16.0998 18.1505 16.0998Z" fill="#FF2F28"/>
</svg>
