
<svg width="24" height="24" viewBox="0 0 24 24" fill="none" xmlns="http://www.w3.org/2000/svg">
<path d="M6.25977 7.5H17.7402C19.9539 7.50013 21.7499 9.2961 21.75 11.5098V12.9502C21.7499 13.084 21.6338 13.2002 21.5 13.2002H19.4805C19.0066 13.2002 18.5537 13.3766 18.2227 13.7197C17.8294 14.0989 17.6503 14.6186 17.6914 15.1396L17.6924 15.1455C17.7791 16.0976 18.6577 16.7898 19.5996 16.79H21.5C21.6339 16.79 21.75 16.9062 21.75 17.04V18.2305C21.7497 20.4547 19.9531 22.2499 17.7402 22.25H6.25977C4.0461 22.2499 2.25013 20.4539 2.25 18.2402V11.5098L2.25488 11.3037C2.35886 9.25395 4.00395 7.60886 6.05371 7.50488L6.25977 7.5ZM6.25977 8C4.32381 8.00013 2.75013 9.57382 2.75 11.5098V18.2402C2.75013 20.1762 4.32381 21.7499 6.25977 21.75H17.7402C19.6762 21.7499 21.2499 20.1762 21.25 18.2402V17.2998H19.5996C18.3286 17.2996 17.2852 16.3583 17.1885 15.1982L17.1875 15.1914C17.1226 14.5261 17.3652 13.864 17.8604 13.377L17.8672 13.3701C18.2914 12.9378 18.8623 12.7002 19.4805 12.7002H21.25V11.5098C21.2499 9.57382 19.6762 8.00013 17.7402 8H6.25977Z" fill="#353535" stroke="#353535"/>
<path d="M12.1973 1.9375C12.865 1.68524 13.6002 1.77624 14.1719 2.17871L14.1748 2.18066C14.7596 2.58679 15.0996 3.24325 15.0996 3.9502V7.75C15.0996 7.88386 14.9835 8 14.8496 8C14.7159 7.99977 14.5996 7.88373 14.5996 7.75V3.9502C14.5996 3.4073 14.3399 2.90216 13.8828 2.58789C13.4882 2.31675 13.0153 2.22401 12.5547 2.34082L12.3633 2.40234L4.42285 5.40234L4.4209 5.40332C3.41975 5.78668 2.74033 6.76071 2.74023 7.83984V12.4219C2.74328 12.5499 2.64062 12.6602 2.5 12.6602C2.36619 12.6602 2.25009 12.544 2.25 12.4102V7.83984C2.25009 6.55959 3.05992 5.39443 4.25781 4.9375L4.25684 4.93652L12.1963 1.9375H12.1973Z" fill="#353535" stroke="#353535"/>
<path d="M19.4707 12.6992H21.5352L21.6689 12.709C22.3269 12.7915 22.8006 13.3285 22.8008 13.9688V16.0293C22.8007 16.7138 22.2624 17.2715 21.5762 17.2988H19.6006C18.3294 17.2988 17.2852 16.3575 17.1885 15.1973V15.1914L17.1777 14.9385C17.1874 14.3516 17.4285 13.7918 17.8613 13.3662L17.8672 13.3594C18.2804 12.938 18.851 12.6992 19.4707 12.6992ZM19.4805 13.1992C19.0643 13.1992 18.665 13.3359 18.3496 13.6016L18.2334 13.71C17.8391 14.0907 17.6385 14.6171 17.6924 15.1533V15.1543C17.779 16.1066 18.6585 16.7988 19.6006 16.7988H21.5605C21.991 16.7988 22.3105 16.4304 22.3105 16.0293V13.9688C22.3103 13.5045 21.9314 13.2233 21.5615 13.2002L21.5459 13.1992H19.4805Z" fill="#353535" stroke="#353535"/>
<path d="M7 11.75H14C14.1339 11.75 14.25 11.8661 14.25 12C14.25 12.1339 14.1339 12.25 14 12.25H7C6.86614 12.25 6.75 12.1339 6.75 12C6.75 11.8661 6.86614 11.75 7 11.75Z" fill="#353535" stroke="#353535"/>
</svg>