<svg width="152" height="59" viewBox="0 0 152 59" fill="none" xmlns="http://www.w3.org/2000/svg">
<path d="M135.081 27.1455C134.634 23.6589 132.657 20.5137 129.584 18.4019C126.512 16.29 122.596 15.3844 118.698 15.8844C114.8 16.3844 111.239 18.2489 108.799 21.0678C106.359 23.8868 105.239 27.4292 105.686 30.9158L115.397 29.6703C115.245 28.4873 115.625 27.2854 116.453 26.329C117.281 25.3726 118.489 24.74 119.812 24.5703C121.134 24.4007 122.463 24.7079 123.505 25.4245C124.548 26.141 125.219 27.2081 125.37 28.3911L135.081 27.1455Z" fill="white"/>
<path d="M135.285 30.026C135.729 33.5131 134.605 37.0542 132.161 39.8703C129.718 42.6864 126.155 44.5468 122.256 45.0422C118.358 45.5376 114.443 44.6275 111.373 42.512C108.303 40.3966 106.329 37.2491 105.886 33.7619L115.598 32.5277C115.749 33.7109 116.418 34.7788 117.46 35.4965C118.501 36.2143 119.83 36.523 121.153 36.355C122.475 36.1869 123.684 35.5557 124.513 34.6002C125.342 33.6448 125.723 32.4433 125.573 31.2602L135.285 30.026Z" fill="#FDB713"/>
<circle cx="120.5" cy="30.5" r="3.5" fill="white"/>
<circle cx="121" cy="30" r="25" stroke="white" stroke-width="8"/>
<path d="M149.791 20.6623C151.827 28.4431 151.709 32.8099 149.767 40.5862L140.022 37.0583C140.593 32.0506 140.554 29.3697 140.037 24.7524L149.791 20.6623Z" fill="#FDB713"/>
<path d="M94.9088 13.3182C99.8326 6.95884 103.365 4.38828 110.711 1.18409L113.86 11.0576C109.544 13.6599 107.443 15.3264 104.1 18.5522L94.9088 13.3182Z" fill="#FDB713"/>
<path d="M21.9805 27.6133C21.8633 28.2305 21.7656 28.793 21.6875 29.3008C21.6172 29.8086 21.582 30.25 21.582 30.625C21.582 31.0156 21.6406 31.3477 21.7578 31.6211C21.875 31.8867 22.0703 32.0898 22.3438 32.2305C22.625 32.3633 23.0117 32.4297 23.5039 32.4297H23.5273V37H23.5039C22.2539 37 21.2109 36.8047 20.375 36.4141C19.5391 36.0234 18.7734 35.375 18.0781 34.4688C17.0156 35.4219 15.7812 36.082 14.375 36.4492C12.9766 36.8164 11.4062 37 9.66406 37C7.54688 37 5.83984 36.7227 4.54297 36.168C3.25391 35.6055 2.31641 34.8086 1.73047 33.7773C1.14453 32.7461 0.851562 31.5312 0.851562 30.1328C0.851562 29.4375 0.910156 28.6992 1.02734 27.918C1.15234 27.1367 1.33594 26.3242 1.57812 25.4805L5.5625 26.5469C5.40625 27.1328 5.28906 27.6758 5.21094 28.1758C5.14062 28.6758 5.10547 29.1172 5.10547 29.5C5.10547 30.2422 5.26562 30.8281 5.58594 31.2578C5.90625 31.6797 6.44531 31.9805 7.20312 32.1602C7.96875 32.3398 9.00391 32.4297 10.3086 32.4297C11.4961 32.4297 12.5156 32.3281 13.3672 32.125C14.2266 31.9141 14.9492 31.5898 15.5352 31.1523C16.1289 30.707 16.6055 30.1367 16.9648 29.4414C17.332 28.7461 17.6133 27.9062 17.8086 26.9219L21.9805 27.6133ZM10.8711 26.5703L13.2734 24.168L15.6758 26.5703L13.2734 28.9727L10.8711 26.5703ZM6.76953 26.5703L9.17188 24.168L11.5742 26.5703L9.17188 28.9727L6.76953 26.5703ZM29.5508 25.8906C29.793 26.8828 29.9805 27.8242 30.1133 28.7148C30.2539 29.5977 30.3242 30.4219 30.3242 31.1875C30.3242 32.3594 30.1055 33.3828 29.668 34.2578C29.2305 35.125 28.5391 35.8008 27.5938 36.2852C26.6562 36.7617 25.4258 37 23.9023 37H23.5391C23.3594 37 23.2188 36.8477 23.1172 36.543C23.0078 36.2383 22.9531 35.625 22.9531 34.7031C22.9531 33.7734 23.0078 33.1641 23.1172 32.875C23.2188 32.5781 23.3594 32.4297 23.5391 32.4297H23.9023C24.5586 32.4297 25.043 32.2891 25.3555 32.0078C25.6758 31.7266 25.8359 31.2461 25.8359 30.5664C25.8359 30.1602 25.7812 29.668 25.6719 29.0898C25.5703 28.5039 25.4297 27.832 25.25 27.0742L29.5508 25.8906ZM23.9727 22.5508L26.375 20.1484L28.7773 22.5508L26.375 24.9531L23.9727 22.5508ZM36.4883 44.0938L36.9219 45.5234L31.4961 47.2578L31.0625 45.8047L36.4883 44.0938ZM33.1484 28.5742L37.4727 27.0742C37.9414 28.5117 38.3164 29.8555 38.5977 31.1055C38.8789 32.3477 39.0195 33.5078 39.0195 34.5859C39.0195 36.0312 38.7305 37.3359 38.1523 38.5C37.582 39.6641 36.6836 40.7031 35.457 41.6172C34.2383 42.5391 32.6523 43.3477 30.6992 44.043L28.6953 39.9414C30.0703 39.4727 31.1797 38.9922 32.0234 38.5C32.8672 38.0078 33.4805 37.4492 33.8633 36.8242C34.2539 36.1992 34.4492 35.4531 34.4492 34.5859C34.4492 33.8359 34.3359 32.9414 34.1094 31.9023C33.8828 30.8555 33.5625 29.7461 33.1484 28.5742Z" fill="#FDB713"/>
<path d="M47.2695 32.3711C47.2148 31.9102 47.1484 31.5352 47.0703 31.2461C47 30.9492 46.9141 30.7188 46.8125 30.5547C46.7188 30.3906 46.6094 30.2773 46.4844 30.2148C46.3672 30.1445 46.2305 30.1094 46.0742 30.1094C45.8711 30.1094 45.6992 30.1836 45.5586 30.332C45.418 30.4727 45.3125 30.668 45.2422 30.918C45.1797 31.1602 45.1484 31.4375 45.1484 31.75C45.1484 31.9688 45.2148 32.1367 45.3477 32.2539C45.4883 32.3711 45.7617 32.4297 46.168 32.4297C46.3555 32.4297 46.5547 32.4258 46.7656 32.418C46.9766 32.4023 47.1445 32.3867 47.2695 32.3711ZM46.6367 37C46.4492 37 46.2656 37 46.0859 37C45.9062 37 45.7266 37 45.5469 37C44.1484 37 43.0703 36.582 42.3125 35.7461C41.5547 34.9102 41.1758 33.7305 41.1758 32.207C41.1758 31.4727 41.2734 30.7266 41.4688 29.9688C41.6641 29.2031 41.9648 28.5 42.3711 27.8594C42.7773 27.2109 43.293 26.6914 43.918 26.3008C44.5508 25.9023 45.3008 25.7031 46.168 25.7031C47.082 25.7031 47.8555 25.8672 48.4883 26.1953C49.1211 26.5234 49.6406 26.9883 50.0469 27.5898C50.4531 28.1914 50.7656 28.9023 50.9844 29.7227C51.2031 30.543 51.3516 31.4453 51.4297 32.4297H52.1328V37H51.2305C50.8242 38.6094 49.9414 39.9805 48.582 41.1133C47.2305 42.2539 45.3555 43.2305 42.957 44.043L40.9531 39.918C42.2422 39.4805 43.3906 39.0117 44.3984 38.5117C45.4141 38.0195 46.1602 37.5156 46.6367 37ZM52.1328 32.4297H62.2344V37H52.1328C51.9531 37 51.8125 36.8477 51.7109 36.543C51.6016 36.2383 51.5469 35.625 51.5469 34.7031C51.5469 33.7734 51.6016 33.1641 51.7109 32.875C51.8125 32.5781 51.9531 32.4297 52.1328 32.4297ZM62.2344 32.4297H72.3359V37H62.2344C62.0547 37 61.9141 36.8477 61.8125 36.543C61.7031 36.2383 61.6484 35.625 61.6484 34.7031C61.6484 33.7734 61.7031 33.1641 61.8125 32.875C61.9141 32.5781 62.0547 32.4297 62.2344 32.4297ZM78.3477 25.8906C78.5898 26.8828 78.7773 27.8242 78.9102 28.7148C79.0508 29.5977 79.1211 30.4219 79.1211 31.1875C79.1211 32.3594 78.9023 33.3828 78.4648 34.2578C78.0273 35.125 77.3359 35.8008 76.3906 36.2852C75.4531 36.7617 74.2227 37 72.6992 37H72.3359C72.1562 37 72.0156 36.8477 71.9141 36.543C71.8047 36.2383 71.75 35.625 71.75 34.7031C71.75 33.7734 71.8047 33.1641 71.9141 32.875C72.0156 32.5781 72.1562 32.4297 72.3359 32.4297H72.6992C73.3555 32.4297 73.8398 32.2891 74.1523 32.0078C74.4727 31.7266 74.6328 31.2461 74.6328 30.5664C74.6328 30.1602 74.5781 29.668 74.4688 29.0898C74.3672 28.5039 74.2266 27.832 74.0469 27.0742L78.3477 25.8906ZM74.8438 23.043L77.2461 20.6406L79.6484 23.043L77.2461 25.4453L74.8438 23.043ZM70.7422 23.043L73.1445 20.6406L75.5469 23.043L73.1445 25.4453L70.7422 23.043ZM83.9023 12.1992C83.6836 12.1992 83.4727 12.2852 83.2695 12.457C83.0742 12.6211 82.9766 12.8164 82.9766 13.043C82.9766 13.2227 83.0312 13.3789 83.1406 13.5117C83.25 13.6367 83.3828 13.7422 83.5391 13.8281C83.7031 13.9141 83.8633 13.9844 84.0195 14.0391C84.1758 13.8594 84.2812 13.6797 84.3359 13.5C84.3984 13.3125 84.4297 13.1211 84.4297 12.9258C84.4297 12.7227 84.3867 12.5508 84.3008 12.4102C84.2148 12.2695 84.082 12.1992 83.9023 12.1992ZM84.0898 10.6875C84.6445 10.6875 85.0898 10.8906 85.4258 11.2969C85.7695 11.7031 85.9414 12.2148 85.9414 12.832C85.9414 13.4492 85.7734 14.0078 85.4375 14.5078C85.1016 15 84.6641 15.4375 84.125 15.8203C83.5938 16.1953 83.0234 16.5156 82.4141 16.7812C81.7969 17.0391 81.2109 17.2422 80.6562 17.3906L80.2578 15.9727C80.5234 15.8945 80.832 15.7891 81.1836 15.6562C81.5273 15.5156 81.8555 15.375 82.168 15.2344C82.4805 15.0938 82.707 14.9883 82.8477 14.918C82.6367 14.8242 82.4297 14.6953 82.2266 14.5312C82.0234 14.3594 81.8555 14.1523 81.7227 13.9102C81.5898 13.668 81.5234 13.3906 81.5234 13.0781C81.5234 12.6562 81.6484 12.2656 81.8984 11.9062C82.1484 11.5391 82.4688 11.2461 82.8594 11.0273C83.25 10.8008 83.6602 10.6875 84.0898 10.6875ZM85.3438 37H80.7734V19.3633H85.3438V37Z" fill="white"/>
</svg>
